HIERARCHY
ROOT Hips
{
  OFFSET 40.9192 92.6879 18.85
  CHANNELS 6 Xposition Yposition Zposition Zrotation Xrotation Yrotation
  JOINT LeftUpLeg
  {
    OFFSET 8.64259 1.95398 -2.38835
    CHANNELS 3 Zrotation Xrotation Yrotation
    JOINT LeftLeg
    {
      OFFSET 43.7702 0 0
      CHANNELS 3 Zrotation Xrotation Yrotation
      JOINT LeftFoot
      {
        OFFSET 40.6238 0 0
        CHANNELS 3 Zrotation Xrotation Yrotation
        JOINT LeftToeBase
        {
          OFFSET 12.7242 0 0
          CHANNELS 3 Zrotation Xrotation Yrotation
          End Site
          {
            OFFSET 0 0 0
          }
        }
      }
    }
  }
  JOINT RightUpLeg
  {
    OFFSET -8.2249 1.95398 -2.59336
    CHANNELS 3 Zrotation Xrotation Yrotation
    JOINT RightLeg
    {
      OFFSET 43.5653 0 0
      CHANNELS 3 Zrotation Xrotation Yrotation
      JOINT RightFoot
      {
        OFFSET 40.6238 0 0
        CHANNELS 3 Zrotation Xrotation Yrotation
        JOINT RightToeBase
        {
          OFFSET 12.7242 0 0
          CHANNELS 3 Zrotation Xrotation Yrotation
          End Site
          {
            OFFSET 0 0 0
          }
        }
      }
    }
  }
  JOINT Spine
  {
    OFFSET 0.165834 0.87714 6.61349
    CHANNELS 3 Zrotation Xrotation Yrotation
    JOINT Spine1
    {
      OFFSET 7.38963 1.71661e-005 0
      CHANNELS 3 Zrotation Xrotation Yrotation
      JOINT Spine2
      {
        OFFSET 11.9445 1.14441e-005 0
        CHANNELS 3 Zrotation Xrotation Yrotation
        JOINT Spine3
        {
          OFFSET 14.7254 4.19617e-005 0
          CHANNELS 3 Zrotation Xrotation Yrotation
          JOINT Spine4
          {
            OFFSET 10.9679 0 0
            CHANNELS 3 Zrotation Xrotation Yrotation
            JOINT RightShoulder
            {
              OFFSET 2.46616 -1.6653 3.69651
              CHANNELS 3 Zrotation Xrotation Yrotation
              JOINT RightArm
              {
                OFFSET 13.0012 0 0
                CHANNELS 3 Zrotation Xrotation Yrotation
                JOINT RightForeArm
                {
                  OFFSET 28.7848 1.52588e-005 0
                  CHANNELS 3 Zrotation Xrotation Yrotation
                  JOINT RightHand
                  {
                    OFFSET 26.5688 1.52588e-005 0
                    CHANNELS 3 Zrotation Xrotation Yrotation
                    End Site
                    {
                      OFFSET 0 0 0
                    }
                  }
                }
              }
            }
            JOINT LeftShoulder
            {
              OFFSET 2.38034 -1.29275 -3.7523
              CHANNELS 3 Zrotation Xrotation Yrotation
              JOINT LeftArm
              {
                OFFSET 16.3182 6.10351e-005 0
                CHANNELS 3 Zrotation Xrotation Yrotation
                JOINT LeftForeArm
                {
                  OFFSET 27.0901 0 0
                  CHANNELS 3 Zrotation Xrotation Yrotation
                  JOINT LeftHand
                  {
                    OFFSET 24.5451 1.52588e-005 0
                    CHANNELS 3 Zrotation Xrotation Yrotation
                    End Site
                    {
                      OFFSET 0 0 0
                    }
                  }
                }
              }
            }
            JOINT Neck
            {
              OFFSET 5.0226 -0.0266342 0
              CHANNELS 3 Zrotation Xrotation Yrotation
              JOINT Head
              {
                OFFSET 6.69363 2.86102e-005 0
                CHANNELS 3 Zrotation Xrotation Yrotation
                End Site
                {
                  OFFSET 0 0 0
                }
              }
            }
          }
        }
      }
    }
  }
}
MOTION
Frames:	17
Frame Time:	0.0416667
52.3215 92.4883 0.0225254 -79.0439 42.146 -100.321 -169.499 11.2415 90.8168 -41.0565 20.9987 -3.80203 59.1148 0.660808 1.56899 50.4716 20.0187 14.037 173.964 -2.44468 88.9102 -16.321 -5.39494 -2.39623 83.9418 -10.6024 -4.1869 41.7015 0.217821 -8.80661 0.746991 7.10984 -89.4866 12.6483 1.72888 0.822924 0.978291 1.76341 0.746016 -21.5614 1.40165 1.30452 -1.5487 1.40165 1.30452 93.878 -47.3127 -95.3024 17.3351 -21.4617 -6.17913 -16.8843 -7.65815 -85.509 -32.5354 0.118903 -4.66925 -92.6888 -48.3837 74.2994 -26.2626 8.37685 7.94561 5.22553 5.01156 -42.238 13.8201 0.85507 2.26999 12.0443 -2.38454 4.39509 1.94913 -3.32835 -0.779732 
51.4572 92.522 0.884735 -78.8662 40.0576 -100.063 -168.882 7.3919 90.9497 -34.2439 20.5668 -4.74392 62.6795 3.53856 3.09679 50.8779 19.6652 10.9819 173.382 -3.0964 88.2855 -14.7989 -7.28074 -2.20846 83.1314 -10.313 -4.15825 43.9506 0.115782 -9.42327 0.707489 7.00765 -89.5089 12.8533 1.6401 0.784814 1.18317 1.67308 0.711842 -21.356 1.32841 1.24149 -1.34334 1.32842 1.24148 93.9864 -46.7536 -95.2251 19.5434 -20.2564 -3.46863 -16.8508 -8.3197 -84.7536 -32.3757 0.242116 -5.07836 -93.0424 -48.9276 73.9132 -24.032 7.73104 4.55648 5.11001 3.64444 -46.169 17.1852 0.931037 1.54308 11.9766 -3.15868 4.7549 2.15534 -4.18735 -1.2068 
50.5086 92.4125 1.60269 -79.041 38.791 -99.6095 -168.147 5.46884 91.1304 -31.0706 21.6683 -5.66322 64.6104 5.40116 5.26581 50.653 18.9235 8.7057 173.488 -3.6854 87.9105 -14.7293 -9.04301 -2.81199 82.6183 -10.2594 -4.18778 44.9868 0.159243 -8.43165 0.685981 6.96059 -89.5291 12.9478 1.58795 0.74918 1.27766 1.61939 0.678544 -21.2613 1.28939 1.19182 -1.24868 1.28939 1.19183 93.2132 -46.2811 -96.5545 21.4638 -18.9871 -0.823744 -17.3396 -7.814 -83.9738 -32.3257 -0.105905 -3.83603 -94.4276 -49.6691 72.0564 -22.1018 6.1146 3.30839 8.139 4.17161 -52.2453 16.4752 0.839827 1.23586 12.0559 -3.63042 4.80558 1.78542 -4.65054 -1.05583 
49.2633 92.1165 2.25003 -79.807 36.7182 -99.081 -168.904 4.98229 90.2879 -31.689 21.568 -5.06421 64.7428 5.62495 5.08428 51.4862 19.5128 8.05189 173.851 -3.20856 87.5527 -18.1969 -10.2811 -3.76536 82.6895 -10.2577 -4.16519 48.0044 0.0786754 -8.48333 0.540166 7.03786 -89.534 12.7936 1.29571 0.77689 1.12312 1.32865 0.719094 -21.4136 1.00233 1.13039 -1.40092 1.00235 1.13039 93.4501 -46.2692 -96.1741 22.4951 -18.1913 0.203849 -17.0343 -8.95411 -82.0207 -31.7342 -0.16529 -3.63143 -96.3872 -50.4708 69.4157 -20.0192 5.3984 1.84479 9.76318 3.51014 -57.8794 15.7923 0.70844 0.627013 11.8075 -4.08962 4.47541 2.8585 -5.00578 -0.738099 
47.6821 91.9088 2.7378 -79.4801 36.6324 -98.4753 -169.187 3.88244 90.1838 -30.7781 22.9658 -4.83798 66.2306 7.35759 6.83549 49.258 17.4385 7.55501 175.212 1.09135 87.3954 -27.5144 -12.5044 -4.90706 80.248 -9.34668 -3.99343 52.2994 -0.0155099 -8.4164 0.501764 7.07098 -89.6001 12.7285 1.18776 0.65865 1.05796 1.21561 0.605724 -21.4788 0.934913 0.985175 -1.46616 0.93491 0.985176 93.4846 -45.8129 -96.2027 24.578 -16.6387 1.83158 -19.1622 -11.3975 -79.6454 -27.5745 -0.996819 -0.169712 -96.5504 -50.5922 69.2154 -19.565 5.74169 0.150244 13.5104 4.00358 -64.013 16.6461 0.986831 2.05522 11.8185 -4.14847 3.61529 3.89986 -4.87022 -0.559421 
45.9683 92.068 2.97537 -78.9241 38.2701 -97.6792 -169.696 1.14626 90.4145 -26.9178 22.6809 -4.67914 65.8245 6.5649 6.92539 50.349 17.9832 5.65247 177.389 9.3046 88.353 -42.2481 -14.2413 -5.56646 73.8645 -6.97849 -3.4479 55.6231 -1.05421 -13.9982 0.412547 7.12151 -89.7138 12.6296 0.95609 0.459734 0.958946 0.975392 0.417206 -21.5776 0.773716 0.725839 -1.56491 0.773728 0.725835 94.5778 -46.4582 -94.3191 25.0631 -17.4351 3.07216 -20.2833 -13.8171 -76.8875 -25.392 -0.873156 -0.305554 -95.6929 -49.821 70.232 -21.4636 4.96197 0.697 16.7529 2.75473 -71.6857 17.7429 1.38384 3.95172 13.1701 -3.16958 1.77063 3.49386 -3.43255 0.834523 
43.7317 92.4437 2.55672 -77.7013 38.6317 -97.1524 -170.059 -0.454521 90.7648 -23.4919 19.7583 -4.28011 64.7106 4.57711 5.45492 50.1404 18.3969 8.40914 177.851 18.1679 89.5002 -54.8159 -9.82491 -4.1232 73.8304 -6.98192 -3.46785 49.8456 -0.530512 -13.3731 0.040294 7.22865 -89.881 12.4162 0.136726 0.221865 0.745187 0.146386 0.215626 -21.7897 0.0637251 0.252708 -1.77702 0.0637383 0.252701 94.8057 -46.9787 -93.8721 25.879 -17.1525 5.01068 -20.9986 -17.3451 -73.2257 -21.8303 -1.17028 1.57593 -95.7873 -48.7964 69.7747 -22.8937 2.97912 1.1608 17.1979 1.21746 -76.7621 20.07 1.48687 3.54729 15.3148 -1.28016 1.06414 2.92687 -1.39787 1.57229 
41.4366 92.8614 1.41067 -75.6482 38.1229 -97.5077 -170.597 -1.88964 90.7363 -19.8231 19.7871 -3.41776 63.2152 3.53019 5.40802 48.9109 18.8481 15.617 176.704 27.4766 91.1917 -62.9425 -8.10488 -2.08594 71.4188 -5.93569 -3.09727 48.9284 -0.526029 -13.6906 -0.344959 7.3932 -89.9207 12.0883 -0.648219 0.229485 0.417486 -0.637502 0.257791 -22.119 -0.687235 0.0240531 -2.10633 -0.687247 0.0240435 94.6014 -47.9986 -94.0388 26.6185 -15.5985 7.50188 -16.715 -20.1974 -65.9215 -20.7631 -1.09931 1.38329 -96.3838 -46.6637 68.1839 -22.4071 1.04425 -0.281654 18.5353 0.838871 -79.5525 21.0712 1.5546 3.54971 16.7913 -0.0394585 -1.51048 3.84512 0.567697 2.80436 
39.2361 92.1748 0.25351 -73.768 37.3689 -97.9591 -170.797 -2.92254 91.0535 -17.9359 18.9693 -2.81263 63.7721 4.15483 3.85759 48.6851 18.4792 14.9947 174.846 36.8311 93.6761 -68.7113 -9.32842 -0.555648 69.9379 -5.22576 -2.82816 49.379 -0.448773 -12.7451 -0.665979 7.64037 -89.9009 11.5956 -1.27838 0.329647 -0.0747779 -1.26262 0.385595 -22.615 -1.31832 -0.0698533 -2.60234 -1.31833 -0.0698605 94.6412 -50.695 -93.5756 24.5425 -14.8864 9.65595 -10.2498 -20.9688 -57.4346 -18.4236 -1.01745 1.27974 -96.1141 -44.1174 67.7247 -21.2788 -1.47502 -2.64924 20.2178 -0.158083 -84.0155 22.2734 1.62542 3.47325 17.1489 0.611059 -4.51378 6.06886 2.11583 3.60796 
37.1356 90.3248 -0.792068 -72.2779 37.6389 -98.6955 -170.611 -4.39125 90.4828 -17.1408 18.0164 -3.09932 66.033 6.62309 6.0255 49.0665 17.5742 9.06548 172.652 45.4606 96.638 -71.7537 -10.4026 0.322375 68.6997 -4.62973 -2.5739 50.2668 -0.353561 -11.5137 -0.834209 7.99076 -89.8604 10.8961 -1.59632 0.428853 -0.773957 -1.57592 0.498706 -23.317 -1.65139 -0.0708681 -3.30436 -1.65139 -0.0708691 93.88 -52.1964 -94.5076 21.8344 -15.3239 13.6998 -8.40103 -22.5204 -56.0504 -19.3067 -1.40619 3.29497 -94.8144 -41.4769 68.8698 -20.8771 -5.08548 -6.27878 22.0384 -1.66276 -89.1774 21.1025 1.55008 3.52731 16.5711 0.859364 -6.63665 9.88563 3.16634 4.91626 
34.4411 87.8978 -2.54787 -72.0058 37.5293 -99.3492 -170.178 -6.35081 90.2059 -18.3975 18.0066 -3.36509 68.3559 8.44592 6.39758 51.2681 19.0076 6.70522 169.885 50.5515 99.005 -72.5782 -11.414 1.05595 68.4791 -4.33844 -2.41714 53.4945 -0.268998 -9.95986 -1.06321 8.47371 -89.8433 9.93114 -2.04786 0.476493 -1.73833 -2.02491 0.566202 -24.2864 -2.09636 -0.16127 -4.27371 -2.09636 -0.161274 93.3757 -51.3531 -95.4043 22.1558 -16.9654 20.0807 -9.42733 -20.6341 -61.0163 -21.4366 -1.44757 2.89376 -92.5886 -38.7003 71.6019 -21.4035 -7.30557 -10.0838 25.3103 -1.93083 -92.642 22.3143 2.11479 5.57756 16.1074 1.94436 -6.49852 13.3026 4.32219 4.99784 
29.7387 85.8256 -5.53227 -71.108 35.1497 -99.2143 -169.176 -8.30335 92.4327 -18.5704 24.3134 -3.28078 67.1246 7.44416 5.62797 53.7899 21.1975 6.76609 166.467 50.6157 100.908 -71.9771 -8.59163 2.25756 67.4771 -3.91742 -2.24498 47.0258 0.202799 -7.38304 -1.38787 8.77961 -90.1017 9.31761 -2.81327 0.00423584 -2.35029 -2.81035 0.128149 -24.9084 -2.68439 -0.842076 -4.89572 -2.68439 -0.842078 93.5988 -49.2613 -95.4118 25.6117 -18.3076 26.7648 -8.05514 -16.7727 -65.0349 -23.1622 -0.960716 0.0150496 -91.6246 -35.6375 72.2474 -23.6585 -7.38025 -8.80447 24.9529 -2.44166 -92.1801 22.0344 2.22326 6.27771 14.9003 2.7387 -6.98746 15.8229 5.57872 6.71199 
23.535 84.0448 -9.86736 -67.7834 33.6308 -101.716 -170.704 -6.73669 92.2189 -22.5864 25.8351 -1.74833 59.374 0.41596 -0.833269 57.7092 25.4513 9.4174 168.009 45.7881 99.898 -71.2063 -4.77425 2.40449 78.6625 -8.32594 -3.76791 44.9519 0.417022 -5.07841 -1.56133 8.84558 -90.3155 9.17901 -3.25516 -0.392118 -2.48788 -3.26929 -0.24833 -25.0512 -2.9867 -1.35314 -5.03858 -2.98671 -1.35314 94.2108 -49.4595 -94.4265 25.9994 -19.5822 28.5686 -8.58437 -14.906 -69.0712 -24.6439 -0.810177 -0.938426 -91.1317 -35.4649 73.0611 -27.0679 -2.84407 -5.20249 18.6053 -0.568463 -85.198 22.4647 1.19703 1.47228 15.1272 2.90024 -8.31944 17.2763 6.74116 9.62037 
17.5111 83.1169 -14.1341 -63.5803 34.2317 -105.099 -171.702 1.79405 93.597 -38.8554 25.6957 -1.47495 48.6222 -6.77572 -3.70404 48.1491 17.4279 12.5069 171.397 41.4941 98.9732 -68.3936 -0.300028 1.67166 86.3326 -10.9926 -4.11877 45.8642 0.372376 -5.65478 -1.21603 8.87537 -90.4143 9.11576 -2.6106 -0.635712 -2.55271 -2.63604 -0.520126 -25.1034 -2.29881 -1.39124 -5.09077 -2.29881 -1.39125 93.2345 -50.1124 -95.8327 27.2598 -17.6707 26.6609 -8.63776 -11.021 -72.5969 -27.0572 -0.587076 -2.22303 -92.5299 -40.0226 72.1219 -27.3721 6.29256 -2.07127 6.54381 0.388063 -69.1773 29.4384 1.17841 0.019139 19.0967 2.05655 -6.40408 15.2989 5.50955 9.70323 
11.0827 83.3827 -18.4528 -61.4215 37.6822 -106.153 -168.979 20.3147 90.3208 -65.2863 15.0497 -1.5168 48.9776 -5.56527 -1.94047 39.8285 9.3941 12.0333 175.089 34.4597 98.4901 -63.2825 -1.07018 0.231433 86.8956 -11.6681 -4.306 47.9264 0.301164 -6.36059 -0.432941 8.99859 -90.3053 8.87483 -0.999518 -0.534457 -2.79584 -1.0221 -0.489951 -25.3322 -0.792708 -0.810153 -5.31956 -0.792707 -0.810153 93.4515 -47.2291 -95.9942 33.1046 -18.2128 21.1182 -16.2569 -7.34816 -86.6652 -28.2878 -0.466859 -2.60834 -93.8513 -44.8368 71.4952 -30.4968 11.1065 6.38946 0.646348 0.201585 -57.9624 36.6083 1.93904 1.36953 22.3951 0.945906 -2.68753 12.4214 3.00144 8.15403 
4.91771 84.743 -24.0892 -59.5928 40.3476 -109.815 -164.281 38.1998 89.2997 -80.3515 10.806 -1.42338 52.6472 -2.62115 1.61808 39.1213 8.78194 13.3723 177.912 25.3087 95.5491 -54.0687 -4.56022 -1.84636 84.7018 -11.6036 -4.54844 49.4366 0.275064 -6.45085 0.24968 8.86927 -89.7143 9.13681 0.625833 0.519142 -2.53403 0.648082 0.491086 -25.0696 0.440862 0.683238 -5.05694 0.440874 0.683237 94.4202 -42.7909 -95.1977 36.1171 -23.6961 12.1005 -21.6495 -0.467161 -99.6623 -26.9466 0.296647 -5.71467 -91.7732 -44.7684 74.7431 -38.7342 12.544 23.2454 -1.97477 -1.45741 -63.2072 38.6874 1.59462 0.322138 22.2645 -0.630501 -1.38145 11.0515 0.841932 7.2289 
-2.31883 87.4223 -30.1089 -58.8375 42.033 -113.507 -158.459 50.9192 84.4249 -79.0275 7.98098 -2.27344 55.0776 -2.07731 0.806056 40.209 9.75551 12.0638 178.139 14.7274 90.9234 -41.6007 -11.4114 -4.18364 73.5582 -7.73173 -3.85463 54.4869 0.669486 -3.84813 1.13274 8.68571 -89.3254 9.48936 2.56245 1.14351 -2.17947 2.6103 1.02956 -24.7253 2.10034 1.86093 -4.71263 2.10033 1.86091 94.8028 -37.7159 -95.467 35.2292 -23.3688 5.06695 -21.2925 8.50564 -114.189 -33.7202 0.664748 -6.67718 -89.135 -42.2324 78.3331 -49.4518 19.1036 36.8151 7.82669 2.25826 -72.3548 47.1804 7.03977 11.0038 19.6563 -2.49999 1.78794 9.63142 -2.35026 4.38252 
